<svg xmlns="http://www.w3.org/2000/svg" width="40" height="40" viewBox="0 0 40 40" fill="none">
<g transform="translate(-0.5 -0.5)">
<g id="09 - loader3 - 2">

<path id="Vector 1402" d="M20.5 28.5L20.5 24.5" stroke="#CBA6F7" stroke-width="2.00025"/>
<path id="Vector 1405" d="M26.2485 20.656C23.1035 19.9951 20.7683 22.9337 20.5216 24.3589C20.4813 24.5917 20.6852 24.7629 20.9213 24.7541C23.8463 24.6441 27.113 23.3525 26.5832 20.979C26.5466 20.8149 26.413 20.6905 26.2485 20.656Z" fill="#CBA6F7"/>
<path id="Vector 1406" d="M14.7515 20.656C17.8965 19.9951 20.2317 22.9337 20.4784 24.3589C20.5187 24.5917 20.3148 24.7629 20.0787 24.7541C17.1537 24.6441 13.887 23.3525 14.4168 20.979C14.4534 20.8149 14.587 20.6905 14.7515 20.656Z" fill="#CBA6F7"/>
</g>
</g>
</svg>
